<?xml version="1.0" encoding="UTF-8"?>
<svg id="Layer_2" data-name="Layer 2" xmlns="http://www.w3.org/2000/svg" viewBox="0 0 431.62 6.04">
  <defs>
    <style>
      .cls-1 {
        stroke-linecap: square;
      }

      .cls-1, .cls-2 {
        stroke-width: .75px;
      }

      .cls-1, .cls-2, .cls-3 {
        fill: none;
        stroke: #231f20;
        stroke-miterlimit: 10;
      }

      .cls-3 {
        stroke-width: .5px;
      }
    </style>
  </defs>
  <g id="_150mm_Ruler" data-name="150mm Ruler">
    <line id="Baseline" class="cls-1" x1=".38" y1="5.67" x2="431.24" y2="5.67"/>
    <g id="Ticks">
      <g>
        <line class="cls-2" x1=".38" y1="5.67" x2=".38"/>
        <line class="cls-3" x1="3.21" y1="5.67" x2="3.21" y2="1.42"/>
        <line class="cls-3" x1="6.04" y1="5.67" x2="6.04" y2="1.42"/>
        <line class="cls-3" x1="8.88" y1="5.67" x2="8.88" y2="1.42"/>
      </g>
    </g>
    <g id="Ticks-2" data-name="Ticks">
      <g>
        <line class="cls-2" x1="11.71" y1="5.67" x2="11.71"/>
        <line class="cls-3" x1="14.55" y1="5.67" x2="14.55" y2="1.42"/>
        <line class="cls-3" x1="17.38" y1="5.67" x2="17.38" y2="1.42"/>
        <line class="cls-3" x1="20.22" y1="5.67" x2="20.22" y2="1.42"/>
      </g>
    </g>
    <g id="Ticks-3" data-name="Ticks">
      <g>
        <line class="cls-2" x1="23.05" y1="5.67" x2="23.05"/>
        <line class="cls-3" x1="25.89" y1="5.67" x2="25.89" y2="1.42"/>
        <line class="cls-3" x1="28.72" y1="5.67" x2="28.72" y2="1.42"/>
        <line class="cls-3" x1="31.56" y1="5.67" x2="31.56" y2="1.42"/>
      </g>
    </g>
    <g id="Ticks-4" data-name="Ticks">
      <g>
        <line class="cls-2" x1="34.39" y1="5.67" x2="34.39"/>
        <line class="cls-3" x1="37.23" y1="5.67" x2="37.23" y2="1.42"/>
        <line class="cls-3" x1="40.06" y1="5.67" x2="40.06" y2="1.42"/>
        <line class="cls-3" x1="42.89" y1="5.67" x2="42.89" y2="1.42"/>
      </g>
    </g>
    <g id="Ticks-5" data-name="Ticks">
      <g>
        <line class="cls-2" x1="45.73" y1="5.67" x2="45.73"/>
        <line class="cls-3" x1="48.56" y1="5.67" x2="48.56" y2="1.42"/>
        <line class="cls-3" x1="51.4" y1="5.67" x2="51.4" y2="1.42"/>
        <line class="cls-3" x1="54.23" y1="5.67" x2="54.23" y2="1.42"/>
      </g>
    </g>
    <g id="Ticks-6" data-name="Ticks">
      <g>
        <line class="cls-2" x1="57.07" y1="5.67" x2="57.07"/>
        <line class="cls-3" x1="59.9" y1="5.67" x2="59.9" y2="1.42"/>
        <line class="cls-3" x1="62.74" y1="5.67" x2="62.74" y2="1.42"/>
        <line class="cls-3" x1="65.57" y1="5.67" x2="65.57" y2="1.42"/>
      </g>
    </g>
    <g id="Ticks-7" data-name="Ticks">
      <g>
        <line class="cls-2" x1="68.41" y1="5.67" x2="68.41"/>
        <line class="cls-3" x1="71.24" y1="5.67" x2="71.24" y2="1.42"/>
        <line class="cls-3" x1="74.08" y1="5.67" x2="74.08" y2="1.42"/>
        <line class="cls-3" x1="76.91" y1="5.67" x2="76.91" y2="1.42"/>
      </g>
    </g>
    <g id="Ticks-8" data-name="Ticks">
      <g>
        <line class="cls-2" x1="79.75" y1="5.67" x2="79.75"/>
        <line class="cls-3" x1="82.58" y1="5.67" x2="82.58" y2="1.42"/>
        <line class="cls-3" x1="85.41" y1="5.67" x2="85.41" y2="1.42"/>
        <line class="cls-3" x1="88.25" y1="5.67" x2="88.25" y2="1.42"/>
      </g>
    </g>
    <g id="Ticks-9" data-name="Ticks">
      <g>
        <line class="cls-2" x1="91.08" y1="5.67" x2="91.08"/>
        <line class="cls-3" x1="93.92" y1="5.67" x2="93.92" y2="1.42"/>
        <line class="cls-3" x1="96.75" y1="5.67" x2="96.75" y2="1.42"/>
        <line class="cls-3" x1="99.59" y1="5.67" x2="99.59" y2="1.42"/>
      </g>
    </g>
    <g id="Ticks-10" data-name="Ticks">
      <g>
        <line class="cls-2" x1="102.42" y1="5.67" x2="102.42"/>
        <line class="cls-3" x1="105.26" y1="5.67" x2="105.26" y2="1.42"/>
        <line class="cls-3" x1="108.09" y1="5.67" x2="108.09" y2="1.42"/>
        <line class="cls-3" x1="110.93" y1="5.67" x2="110.93" y2="1.42"/>
      </g>
    </g>
    <g id="Ticks-11" data-name="Ticks">
      <g>
        <line class="cls-2" x1="113.76" y1="5.67" x2="113.76"/>
        <line class="cls-3" x1="116.6" y1="5.67" x2="116.6" y2="1.42"/>
        <line class="cls-3" x1="119.43" y1="5.67" x2="119.43" y2="1.42"/>
        <line class="cls-3" x1="122.26" y1="5.67" x2="122.26" y2="1.42"/>
      </g>
    </g>
    <g id="Ticks-12" data-name="Ticks">
      <g>
        <line class="cls-2" x1="125.1" y1="5.67" x2="125.1"/>
        <line class="cls-3" x1="127.93" y1="5.67" x2="127.93" y2="1.42"/>
        <line class="cls-3" x1="130.77" y1="5.67" x2="130.77" y2="1.42"/>
        <line class="cls-3" x1="133.6" y1="5.67" x2="133.6" y2="1.42"/>
      </g>
    </g>
    <g id="Ticks-13" data-name="Ticks">
      <g>
        <line class="cls-2" x1="136.44" y1="5.67" x2="136.44"/>
        <line class="cls-3" x1="139.27" y1="5.67" x2="139.27" y2="1.42"/>
        <line class="cls-3" x1="142.11" y1="5.67" x2="142.11" y2="1.42"/>
        <line class="cls-3" x1="144.94" y1="5.67" x2="144.94" y2="1.42"/>
      </g>
    </g>
    <g id="Ticks-14" data-name="Ticks">
      <g>
        <line class="cls-2" x1="147.78" y1="5.67" x2="147.78"/>
        <line class="cls-3" x1="150.61" y1="5.67" x2="150.61" y2="1.42"/>
        <line class="cls-3" x1="153.45" y1="5.67" x2="153.45" y2="1.42"/>
        <line class="cls-3" x1="156.28" y1="5.67" x2="156.28" y2="1.42"/>
      </g>
    </g>
    <g id="Ticks-15" data-name="Ticks">
      <g>
        <line class="cls-2" x1="159.12" y1="5.67" x2="159.12"/>
        <line class="cls-3" x1="161.95" y1="5.67" x2="161.95" y2="1.42"/>
        <line class="cls-3" x1="164.78" y1="5.67" x2="164.78" y2="1.42"/>
        <line class="cls-3" x1="167.62" y1="5.67" x2="167.62" y2="1.42"/>
      </g>
    </g>
    <g id="Ticks-16" data-name="Ticks">
      <g>
        <line class="cls-2" x1="170.45" y1="5.67" x2="170.45"/>
        <line class="cls-3" x1="173.29" y1="5.67" x2="173.29" y2="1.42"/>
        <line class="cls-3" x1="176.12" y1="5.67" x2="176.12" y2="1.42"/>
        <line class="cls-3" x1="178.96" y1="5.67" x2="178.96" y2="1.42"/>
      </g>
    </g>
    <g id="Ticks-17" data-name="Ticks">
      <g>
        <line class="cls-2" x1="181.79" y1="5.67" x2="181.79"/>
        <line class="cls-3" x1="184.63" y1="5.67" x2="184.63" y2="1.42"/>
        <line class="cls-3" x1="187.46" y1="5.67" x2="187.46" y2="1.42"/>
        <line class="cls-3" x1="190.3" y1="5.67" x2="190.3" y2="1.42"/>
      </g>
    </g>
    <g id="Ticks-18" data-name="Ticks">
      <g>
        <line class="cls-2" x1="193.13" y1="5.67" x2="193.13"/>
        <line class="cls-3" x1="195.97" y1="5.67" x2="195.97" y2="1.42"/>
        <line class="cls-3" x1="198.8" y1="5.67" x2="198.8" y2="1.42"/>
        <line class="cls-3" x1="201.63" y1="5.67" x2="201.63" y2="1.42"/>
      </g>
    </g>
    <g id="Ticks-19" data-name="Ticks">
      <g>
        <line class="cls-2" x1="204.47" y1="5.67" x2="204.47"/>
        <line class="cls-3" x1="207.3" y1="5.67" x2="207.3" y2="1.42"/>
        <line class="cls-3" x1="210.14" y1="5.67" x2="210.14" y2="1.42"/>
        <line class="cls-3" x1="212.97" y1="5.67" x2="212.97" y2="1.42"/>
      </g>
    </g>
    <g id="Ticks-20" data-name="Ticks">
      <g>
        <line class="cls-2" x1="215.81" y1="5.67" x2="215.81"/>
        <line class="cls-3" x1="218.64" y1="5.67" x2="218.64" y2="1.42"/>
        <line class="cls-3" x1="221.48" y1="5.67" x2="221.48" y2="1.42"/>
        <line class="cls-3" x1="224.31" y1="5.67" x2="224.31" y2="1.42"/>
      </g>
    </g>
    <g id="Ticks-21" data-name="Ticks">
      <g>
        <line class="cls-2" x1="227.15" y1="5.67" x2="227.15"/>
        <line class="cls-3" x1="229.98" y1="5.67" x2="229.98" y2="1.42"/>
        <line class="cls-3" x1="232.82" y1="5.67" x2="232.82" y2="1.42"/>
        <line class="cls-3" x1="235.65" y1="5.67" x2="235.65" y2="1.42"/>
      </g>
    </g>
    <g id="Ticks-22" data-name="Ticks">
      <g>
        <line class="cls-2" x1="238.49" y1="5.67" x2="238.49"/>
        <line class="cls-3" x1="241.32" y1="5.67" x2="241.32" y2="1.42"/>
        <line class="cls-3" x1="244.15" y1="5.67" x2="244.15" y2="1.42"/>
        <line class="cls-3" x1="246.99" y1="5.67" x2="246.99" y2="1.42"/>
      </g>
    </g>
    <g id="Ticks-23" data-name="Ticks">
      <g>
        <line class="cls-2" x1="249.82" y1="5.67" x2="249.82"/>
        <line class="cls-3" x1="252.66" y1="5.67" x2="252.66" y2="1.42"/>
        <line class="cls-3" x1="255.49" y1="5.67" x2="255.49" y2="1.42"/>
        <line class="cls-3" x1="258.33" y1="5.67" x2="258.33" y2="1.42"/>
      </g>
    </g>
    <g id="Ticks-24" data-name="Ticks">
      <g>
        <line class="cls-2" x1="261.16" y1="5.67" x2="261.16"/>
        <line class="cls-3" x1="264" y1="5.67" x2="264" y2="1.42"/>
        <line class="cls-3" x1="266.83" y1="5.67" x2="266.83" y2="1.42"/>
        <line class="cls-3" x1="269.67" y1="5.67" x2="269.67" y2="1.42"/>
      </g>
    </g>
    <g id="Ticks-25" data-name="Ticks">
      <g>
        <line class="cls-2" x1="272.5" y1="5.67" x2="272.5"/>
        <line class="cls-3" x1="275.34" y1="5.67" x2="275.34" y2="1.42"/>
        <line class="cls-3" x1="278.17" y1="5.67" x2="278.17" y2="1.42"/>
        <line class="cls-3" x1="281" y1="5.67" x2="281" y2="1.42"/>
      </g>
    </g>
    <g id="Ticks-26" data-name="Ticks">
      <g>
        <line class="cls-2" x1="283.84" y1="5.67" x2="283.84"/>
        <line class="cls-3" x1="286.67" y1="5.67" x2="286.67" y2="1.42"/>
        <line class="cls-3" x1="289.51" y1="5.67" x2="289.51" y2="1.42"/>
        <line class="cls-3" x1="292.34" y1="5.67" x2="292.34" y2="1.42"/>
      </g>
    </g>
    <g id="Ticks-27" data-name="Ticks">
      <g>
        <line class="cls-2" x1="295.18" y1="5.67" x2="295.18"/>
        <line class="cls-3" x1="298.01" y1="5.67" x2="298.01" y2="1.42"/>
        <line class="cls-3" x1="300.85" y1="5.67" x2="300.85" y2="1.42"/>
        <line class="cls-3" x1="303.68" y1="5.67" x2="303.68" y2="1.42"/>
      </g>
    </g>
    <g id="Ticks-28" data-name="Ticks">
      <g>
        <line class="cls-2" x1="306.52" y1="5.67" x2="306.52"/>
        <line class="cls-3" x1="309.35" y1="5.67" x2="309.35" y2="1.42"/>
        <line class="cls-3" x1="312.19" y1="5.67" x2="312.19" y2="1.42"/>
        <line class="cls-3" x1="315.02" y1="5.67" x2="315.02" y2="1.42"/>
      </g>
    </g>
    <g id="Ticks-29" data-name="Ticks">
      <g>
        <line class="cls-2" x1="317.86" y1="5.67" x2="317.86"/>
        <line class="cls-3" x1="320.69" y1="5.67" x2="320.69" y2="1.42"/>
        <line class="cls-3" x1="323.52" y1="5.67" x2="323.52" y2="1.42"/>
        <line class="cls-3" x1="326.36" y1="5.67" x2="326.36" y2="1.42"/>
      </g>
    </g>
    <g id="Ticks-30" data-name="Ticks">
      <g>
        <line class="cls-2" x1="329.19" y1="5.67" x2="329.19"/>
        <line class="cls-3" x1="332.03" y1="5.67" x2="332.03" y2="1.42"/>
        <line class="cls-3" x1="334.86" y1="5.67" x2="334.86" y2="1.42"/>
        <line class="cls-3" x1="337.7" y1="5.67" x2="337.7" y2="1.42"/>
      </g>
    </g>
    <g id="Ticks-31" data-name="Ticks">
      <g>
        <line class="cls-2" x1="340.53" y1="5.67" x2="340.53"/>
        <line class="cls-3" x1="343.37" y1="5.67" x2="343.37" y2="1.42"/>
        <line class="cls-3" x1="346.2" y1="5.67" x2="346.2" y2="1.42"/>
        <line class="cls-3" x1="349.04" y1="5.67" x2="349.04" y2="1.42"/>
      </g>
    </g>
    <g id="Ticks-32" data-name="Ticks">
      <g>
        <line class="cls-2" x1="351.87" y1="5.67" x2="351.87"/>
        <line class="cls-3" x1="354.71" y1="5.67" x2="354.71" y2="1.42"/>
        <line class="cls-3" x1="357.54" y1="5.67" x2="357.54" y2="1.42"/>
        <line class="cls-3" x1="360.38" y1="5.67" x2="360.38" y2="1.42"/>
      </g>
    </g>
    <g id="Ticks-33" data-name="Ticks">
      <g>
        <line class="cls-2" x1="363.21" y1="5.67" x2="363.21"/>
        <line class="cls-3" x1="366.04" y1="5.67" x2="366.04" y2="1.42"/>
        <line class="cls-3" x1="368.88" y1="5.67" x2="368.88" y2="1.42"/>
        <line class="cls-3" x1="371.71" y1="5.67" x2="371.71" y2="1.42"/>
      </g>
    </g>
    <g id="Ticks-34" data-name="Ticks">
      <g>
        <line class="cls-2" x1="374.55" y1="5.67" x2="374.55"/>
        <line class="cls-3" x1="377.38" y1="5.67" x2="377.38" y2="1.42"/>
        <line class="cls-3" x1="380.22" y1="5.67" x2="380.22" y2="1.42"/>
        <line class="cls-3" x1="383.05" y1="5.67" x2="383.05" y2="1.42"/>
      </g>
    </g>
    <g id="Ticks-35" data-name="Ticks">
      <g>
        <line class="cls-2" x1="385.89" y1="5.67" x2="385.89"/>
        <line class="cls-3" x1="388.72" y1="5.67" x2="388.72" y2="1.42"/>
        <line class="cls-3" x1="391.56" y1="5.67" x2="391.56" y2="1.42"/>
        <line class="cls-3" x1="394.39" y1="5.67" x2="394.39" y2="1.42"/>
      </g>
    </g>
    <g id="Ticks-36" data-name="Ticks">
      <g>
        <line class="cls-2" x1="397.23" y1="5.67" x2="397.23"/>
        <line class="cls-3" x1="400.06" y1="5.67" x2="400.06" y2="1.42"/>
        <line class="cls-3" x1="402.89" y1="5.67" x2="402.89" y2="1.42"/>
        <line class="cls-3" x1="405.73" y1="5.67" x2="405.73" y2="1.42"/>
      </g>
    </g>
    <g id="Ticks-37" data-name="Ticks">
      <g>
        <line class="cls-2" x1="408.56" y1="5.67" x2="408.56"/>
        <line class="cls-3" x1="411.4" y1="5.67" x2="411.4" y2="1.42"/>
        <line class="cls-3" x1="414.23" y1="5.67" x2="414.23" y2="1.42"/>
        <line class="cls-3" x1="417.07" y1="5.67" x2="417.07" y2="1.42"/>
      </g>
    </g>
    <g id="Ticks-38" data-name="Ticks">
      <g>
        <line class="cls-2" x1="419.9" y1="5.67" x2="419.9"/>
        <line class="cls-2" x1="431.24" y1="5.67" x2="431.24"/>
        <line class="cls-3" x1="422.74" y1="5.67" x2="422.74" y2="1.42"/>
        <line class="cls-3" x1="425.57" y1="5.67" x2="425.57" y2="1.42"/>
        <line class="cls-3" x1="428.41" y1="5.67" x2="428.41" y2="1.42"/>
      </g>
    </g>
  </g>
</svg>